<svg xmlns="http://www.w3.org/2000/svg" width="345" height="16" viewBox="0 0 345 16">
  <metadata><?xpacket begin="﻿" id="W5M0MpCehiHzreSzNTczkc9d"?>
<x:xmpmeta xmlns:x="adobe:ns:meta/" x:xmptk="Adobe XMP Core 5.6-c138 79.159824, 2016/09/14-01:09:01        ">
   <rdf:RDF xmlns:rdf="http://www.w3.org/1999/02/22-rdf-syntax-ns#">
      <rdf:Description rdf:about=""/>
   </rdf:RDF>
</x:xmpmeta>
                                                                                                    
                                                                                                    
                                                                                                    
                                                                                                    
                                                                                                    
                                                                                                    
                                                                                                    
                                                                                                    
                                                                                                    
                                                                                                    
                                                                                                    
                                                                                                    
                                                                                                    
                                                                                                    
                                                                                                    
                                                                                                    
                                                                                                    
                                                                                                    
                                                                                                    
                                                                                                    
                           
<?xpacket end="w"?></metadata>
<defs>
    <style>
      .cls-1 {
        fill-rule: evenodd;
      }
    </style>
  </defs>
  <path id="Shape_5_copy" data-name="Shape 5 copy" class="cls-1" d="M821,856v-2h276v2H821Zm295.69-6.185c2.29,0,3.81,2.751,5.24,4.723,1.06,1.437,3.07,3.49,5.12,3.49a2.408,2.408,0,0,0,2.66-2.5,2.293,2.293,0,0,0-1.66-2.28,0.378,0.378,0,0,1-.23-0.555,1.909,1.909,0,0,1,1.87-1.354,2.453,2.453,0,0,1,2.31,2.587c0,1.848-1.64,3.614-2.38,4.354a6.157,6.157,0,0,0-1.06,1.232c-1.39,2.382-5.24,3.491-8.02,3.491a14.388,14.388,0,0,1-8.39-2.547c-2.17-1.684-2.95-3.2-2.95-4.847a2.583,2.583,0,0,1,1.31-2.463c-1.39-2.157-3.07-4.7-6.39-4.7-3.35,0-4.64,2.176-4.64,4.6,0,3.882,3.31,5.894,4.83,5.894,0.37,0,.37.247,0.14,0.37a4.16,4.16,0,0,1-2.5.9c-2.49,0-4.95-2.423-4.95-5.524,0-4.5,4.42-7.68,8.11-7.68,2.41,0,4.29,1.109,6.26,3.779,1.27,1.724,3.07,5.072,5.73,7.208a9.757,9.757,0,0,0,5.98,2.382h0.81v-0.206a11.184,11.184,0,0,1-5.6-3.449,24.894,24.894,0,0,1-4.34-5.628,3.35,3.35,0,0,1,2.7-1.272h0.04Zm-314.38,0c-2.293,0-3.807,2.751-5.24,4.723-1.063,1.437-3.07,3.49-5.116,3.49a2.406,2.406,0,0,1-2.661-2.5,2.287,2.287,0,0,1,1.658-2.28,0.379,0.379,0,0,0,.225-0.555,1.9,1.9,0,0,0-1.863-1.354A2.453,2.453,0,0,0,787,853.922c0,1.848,1.637,3.614,2.374,4.354a6.112,6.112,0,0,1,1.064,1.232c1.391,2.382,5.24,3.491,8.024,3.491a14.413,14.413,0,0,0,8.391-2.547c2.169-1.684,2.947-3.2,2.947-4.847a2.591,2.591,0,0,0-1.31-2.463c1.392-2.157,3.07-4.7,6.386-4.7,3.356,0,4.646,2.176,4.646,4.6,0,3.882-3.316,5.894-4.831,5.894-0.368,0-.368.247-0.143,0.37a4.154,4.154,0,0,0,2.5.9c2.5,0,4.953-2.423,4.953-5.524,0-4.5-4.421-7.68-8.105-7.68-2.415,0-4.3,1.109-6.263,3.779-1.269,1.724-3.07,5.072-5.73,7.208a9.761,9.761,0,0,1-5.977,2.382h-0.818v-0.206a11.222,11.222,0,0,0,5.607-3.449,25.243,25.243,0,0,0,4.34-5.628,3.362,3.362,0,0,0-2.7-1.272H802.31Z" transform="translate(-787 -847)"/>
</svg>
